<svg height="511pt" viewBox="0 -107 511.99852 511" width="511pt" xmlns="http://www.w3.org/2000/svg"><path d="m170.769531 219.558594c16.292969 0 29.550781-13.257813 29.550781-29.554688s-13.257812-29.554687-29.550781-29.554687c-16.296875 0-29.554687 13.257812-29.554687 29.554687s13.257812 29.554688 29.554687 29.554688zm0-44.109375c8.023438 0 14.550781 6.527343 14.550781 14.554687 0 8.023438-6.527343 14.554688-14.550781 14.554688-8.027343 0-14.554687-6.53125-14.554687-14.554688 0-8.027344 6.527344-14.554687 14.554687-14.554687zm0 0"/><path d="m341.230469 219.558594c16.296875 0 29.554687-13.257813 29.554687-29.554688s-13.257812-29.554687-29.554687-29.554687-29.554688 13.257812-29.554688 29.554687 13.257813 29.554688 29.554688 29.554688zm0-44.109375c8.023437 0 14.554687 6.527343 14.554687 14.554687 0 8.023438-6.53125 14.554688-14.554687 14.554688-8.027344 0-14.554688-6.53125-14.554688-14.554688 0-8.027344 6.527344-14.554687 14.554688-14.554687zm0 0"/><path d="m198.300781 110.195312v-11.800781c0-4.140625-3.355469-7.5-7.5-7.5-4.140625 0-7.5 3.359375-7.5 7.5v11.800781c0 4.140626 3.359375 7.5 7.5 7.5 4.144531 0 7.5-3.359374 7.5-7.5zm0 0"/><path d="m328.695312 110.195312v-11.800781c0-4.140625-3.359374-7.5-7.5-7.5-4.140624 0-7.5 3.359375-7.5 7.5v11.800781c0 4.140626 3.359376 7.5 7.5 7.5 4.140626 0 7.5-3.359374 7.5-7.5zm0 0"/><path d="m266.445312 104.4375c-2.53125 2.894531-6.339843 4.554688-10.445312 4.554688-4.109375 0-7.914062-1.660157-10.445312-4.554688-2.726563-3.117188-7.464844-3.4375-10.582032-.710938-3.121094 2.726563-3.4375 7.464844-.710937 10.582032 5.378906 6.15625 13.300781 9.683594 21.738281 9.683594 8.433594 0 16.359375-3.527344 21.738281-9.683594 2.726563-3.117188 2.40625-7.855469-.710937-10.582032-3.117188-2.726562-7.859375-2.410156-10.582032.710938zm0 0"/><path d="m95.019531 175.449219h9.003907c7.769531 0 14.09375-6.324219 14.09375-14.097657v-11.308593h11.308593c7.773438 0 14.097657-6.324219 14.097657-14.097657v-9.003906c0-7.769531-6.324219-14.09375-14.097657-14.09375h-11.308593v-11.308594c0-7.773437-6.324219-14.097656-14.09375-14.097656h-9.003907c-7.773437 0-14.097656 6.324219-14.097656 14.097656v11.308594h-11.308594c-7.773437 0-14.097656 6.324219-14.097656 14.097656v9.003907c0 7.773437 6.324219 14.097656 14.097656 14.097656h11.308594v11.308594c0 7.769531 6.324219 14.09375 14.097656 14.09375zm-24.503906-40.40625v-7.195313h11.308594c7.773437 0 14.097656-6.320312 14.097656-14.09375v-11.3125h7.195313v11.3125c0 7.769532 6.324218 14.09375 14.097656 14.09375h11.308594v7.195313h-11.308594c-7.773438 0-14.097656 6.324219-14.097656 14.097656v11.308594h-7.195313v-11.308594c0-7.773437-6.324219-14.097656-14.097656-14.097656zm0 0"/><path d="m426.128906 106.6875c0 6.488281-5.257812 11.746094-11.746094 11.746094-6.484374 0-11.746093-5.257813-11.746093-11.746094 0-6.484375 5.261719-11.746094 11.746093-11.746094 6.488282 0 11.746094 5.261719 11.746094 11.746094zm0 0"/><path d="m426.128906 156.203125c0 6.488281-5.257812 11.746094-11.746094 11.746094-6.484374 0-11.746093-5.257813-11.746093-11.746094s5.261719-11.746094 11.746093-11.746094c6.488282 0 11.746094 5.257813 11.746094 11.746094zm0 0"/><path d="m450.886719 131.445312c0 6.488282-5.257813 11.746094-11.746094 11.746094s-11.746094-5.257812-11.746094-11.746094c0-6.484374 5.257813-11.746093 11.746094-11.746093s11.746094 5.261719 11.746094 11.746093zm0 0"/><path d="m401.371094 131.445312c0 6.488282-5.257813 11.746094-11.746094 11.746094-6.484375 0-11.746094-5.257812-11.746094-11.746094 0-6.484374 5.261719-11.746093 11.746094-11.746093 6.488281 0 11.746094 5.261719 11.746094 11.746093zm0 0"/><path d="m142.601562.5h-44.871093c-12.757813 0-23.140625 10.378906-23.140625 23.140625v8.632813c-15.101563 2.8125-27.632813 13.960937-31.746094 29.050781l-24.269531 90.410156c-1.074219 4 1.296875 8.117187 5.296875 9.191406.652344.171875 1.308594.257813 1.949218.257813 3.3125 0 6.339844-2.210938 7.242188-5.558594l24.195312-90.144531.0625-.238281c2.996094-10.992188 13.179688-18.667969 24.769532-18.667969h76.148437c8.5625 0 16.539063 4.210937 21.332031 11.265625 5.621094 8.277344 14.78125 13.21875 24.5 13.21875h103.851563c9.71875 0 18.878906-4.941406 24.5-13.21875 4.792969-7.054688 12.769531-11.265625 21.332031-11.265625h76.152344c11.585938 0 21.773438 7.675781 24.769531 18.679687l5.105469 19.015625c1.074219 4 5.1875 6.375 9.1875 5.300781 4-1.074218 6.375-5.1875 5.300781-9.1875l-5.125-19.085937c-4.105469-15.066406-16.636719-26.210937-31.742187-29.023437v-8.632813c0-12.761719-10.378906-23.140625-23.140625-23.140625h-44.867188c-12.761719 0-23.140625 10.378906-23.140625 23.140625v8.625c-10.597656 1.972656-20.078125 8.074219-26.242187 17.148437-2.824219 4.160157-7.34375 6.644532-12.089844 6.644532h-103.847656c-4.746094 0-9.265625-2.484375-12.09375-6.644532-6.164063-9.074218-15.644531-15.175781-26.238281-17.148437v-8.625c0-12.761719-10.382813-23.140625-23.140626-23.140625zm218.65625 23.140625c0-4.488281 3.652344-8.140625 8.140626-8.140625h44.867187c4.488281 0 8.140625 3.652344 8.140625 8.140625v7.933594h-61.148438zm-271.667968 7.933594v-7.933594c0-4.488281 3.652344-8.140625 8.140625-8.140625h44.871093c4.488282 0 8.136719 3.648438 8.136719 8.140625v7.933594zm0 0"/><path d="m471.429688 291.839844c14.957031-6.53125 27.039062-18.234375 34.019531-32.960938 6.902343-14.546875 8.40625-31.078125 4.238281-46.542968l-27.757812-103.417969c-1.074219-4-5.1875-6.371094-9.1875-5.296875-4 1.074218-6.371094 5.1875-5.296876 9.1875l27.757813 103.425781c6.714844 24.917969-6.085937 51.515625-29.773437 61.859375-26.304688 11.488281-57.433594-.816406-69.394532-27.433594l-8.527344-18.976562c-2.183593-4.859375-6.347656-8.566406-11.425781-10.167969-5.0625-1.601563-10.582031-.960937-15.136719 1.75-5.941406 3.535156-12.761718 5.402344-19.714843 5.402344-17.035157 0-31.875-10.914063-36.929688-27.164063-3.535156-11.363281-14.039062-19-26.136719-19h-44.332031c-12.097656 0-22.597656 7.636719-26.132812 19-5.054688 16.25-19.898438 27.164063-36.929688 27.164063-6.957031 0-13.773437-1.867188-19.714843-5.402344-4.558594-2.710937-10.074219-3.347656-15.136719-1.75-5.082031 1.601563-9.246094 5.308594-11.425781 10.167969l-8.527344 18.976562c-11.960938 26.613282-43.089844 38.921875-69.394532 27.433594-23.6875-10.34375-36.488281-36.941406-29.773437-61.867188l8.675781-32.320312c1.074219-4-1.300781-8.117188-5.300781-9.191406-4-1.070313-8.113281 1.300781-9.1875 5.300781l-8.671875 32.3125c-4.167969 15.472656-2.667969 32.003906 4.234375 46.550781 6.984375 14.722656 19.0625 26.429688 34.019531 32.960938 8.628906 3.769531 17.648438 5.550781 26.566406 5.550781 26.023438-.003906 51.105469-15.199219 62.511719-40.582031l8.527344-18.980469c.59375-1.316406 1.671875-1.824219 2.261719-2.011719.582031-.183594 1.738281-.382812 2.953125.339844 8.261719 4.914062 17.730469 7.511719 27.382812 7.511719 23.640625 0 44.234375-15.152344 51.253907-37.707031 1.546874-4.980469 6.40625-8.457032 11.808593-8.457032h44.335938c5.40625 0 10.261719 3.476563 11.8125 8.453125 7.015625 22.558594 27.609375 37.710938 51.25 37.710938 9.65625 0 19.125-2.597657 27.386719-7.511719 1.210937-.722656 2.367187-.523438 2.949218-.339844.589844.1875 1.667969.695313 2.261719 2.011719l8.527344 18.980469c11.40625 25.382812 36.488281 40.582031 62.511719 40.582031 8.914062 0 17.9375-1.78125 26.5625-5.550781zm0 0"/></svg>